solid OpenSCAD_Model
  facet normal 0.951054 -0.309025 0
    outer loop
      vertex 1.23195 -0.487764 10
      vertex 1.28337 -0.329514 0
      vertex 1.28337 -0.329514 10
    endloop
  endfacet
  facet normal 0.951054 -0.309025 0
    outer loop
      vertex 1.28337 -0.329514 0
      vertex 1.23195 -0.487764 10
      vertex 1.23195 -0.487764 0
    endloop
  endfacet
  facet normal 0.982287 0.187385 0
    outer loop
      vertex 1.31455 0.166066 10
      vertex 1.28337 0.329514 0
      vertex 1.28337 0.329514 10
    endloop
  endfacet
  facet normal 0.982287 0.187385 0
    outer loop
      vertex 1.28337 0.329514 0
      vertex 1.31455 0.166066 10
      vertex 1.31455 0.166066 0
    endloop
  endfacet
  facet normal 0.998026 0.0628026 0
    outer loop
      vertex 1.325 0 10
      vertex 1.31455 0.166066 0
      vertex 1.31455 0.166066 10
    endloop
  endfacet
  facet normal 0.998026 0.0628026 0
    outer loop
      vertex 1.31455 0.166066 0
      vertex 1.325 0 10
      vertex 1.325 0 0
    endloop
  endfacet
  facet normal 0.951054 0.309025 0
    outer loop
      vertex 1.28337 0.329514 10
      vertex 1.23195 0.487764 0
      vertex 1.23195 0.487764 10
    endloop
  endfacet
  facet normal 0.951054 0.309025 0
    outer loop
      vertex 1.23195 0.487764 0
      vertex 1.28337 0.329514 10
      vertex 1.28337 0.329514 0
    endloop
  endfacet
  facet normal -0.982287 0.187385 0
    outer loop
      vertex -1.31455 0.166066 0
      vertex -1.28337 0.329514 10
      vertex -1.28337 0.329514 0
    endloop
  endfacet
  facet normal -0.982287 0.187385 0
    outer loop
      vertex -1.28337 0.329514 10
      vertex -1.31455 0.166066 0
      vertex -1.31455 0.166066 10
    endloop
  endfacet
  facet normal 0.844325 -0.535831 0
    outer loop
      vertex 1.07195 -0.778815 10
      vertex 1.16111 -0.638323 0
      vertex 1.16111 -0.638323 10
    endloop
  endfacet
  facet normal 0.844325 -0.535831 0
    outer loop
      vertex 1.16111 -0.638323 0
      vertex 1.07195 -0.778815 10
      vertex 1.07195 -0.778815 0
    endloop
  endfacet
  facet normal -0.844325 -0.535831 0
    outer loop
      vertex -1.07195 -0.778815 0
      vertex -1.16111 -0.638323 10
      vertex -1.16111 -0.638323 0
    endloop
  endfacet
  facet normal -0.844325 -0.535831 0
    outer loop
      vertex -1.16111 -0.638323 10
      vertex -1.07195 -0.778815 0
      vertex -1.07195 -0.778815 10
    endloop
  endfacet
  facet normal 0.684549 -0.728967 0
    outer loop
      vertex 0.844586 -1.02093 0
      vertex 0.965883 -0.907024 10
      vertex 0.844586 -1.02093 10
    endloop
  endfacet
  facet normal 0.684549 -0.728967 0
    outer loop
      vertex 0.965883 -0.907024 10
      vertex 0.844586 -1.02093 0
      vertex 0.965883 -0.907024 0
    endloop
  endfacet
  facet normal -0.125304 -0.992118 0
    outer loop
      vertex -0.24828 -1.30153 0
      vertex -0.0831966 -1.32238 10
      vertex -0.24828 -1.30153 10
    endloop
  endfacet
  facet normal -0.125304 -0.992118 -0
    outer loop
      vertex -0.0831966 -1.32238 10
      vertex -0.24828 -1.30153 0
      vertex -0.0831966 -1.32238 0
    endloop
  endfacet
  facet normal 0.998026 -0.0628026 0
    outer loop
      vertex 1.31455 -0.166066 10
      vertex 1.325 0 0
      vertex 1.325 0 10
    endloop
  endfacet
  facet normal 0.998026 -0.0628026 0
    outer loop
      vertex 1.325 0 0
      vertex 1.31455 -0.166066 10
      vertex 1.31455 -0.166066 0
    endloop
  endfacet
  facet normal 0.844325 0.535831 0
    outer loop
      vertex 1.16111 0.638323 10
      vertex 1.07195 0.778815 0
      vertex 1.07195 0.778815 10
    endloop
  endfacet
  facet normal 0.844325 0.535831 0
    outer loop
      vertex 1.07195 0.778815 0
      vertex 1.16111 0.638323 10
      vertex 1.16111 0.638323 0
    endloop
  endfacet
  facet normal 0.904845 0.425741 0
    outer loop
      vertex 1.23195 0.487764 10
      vertex 1.16111 0.638323 0
      vertex 1.16111 0.638323 10
    endloop
  endfacet
  facet normal 0.904845 0.425741 0
    outer loop
      vertex 1.16111 0.638323 0
      vertex 1.23195 0.487764 10
      vertex 1.23195 0.487764 0
    endloop
  endfacet
  facet normal -0.125304 0.992118 0
    outer loop
      vertex -0.0831966 1.32238 0
      vertex -0.24828 1.30153 10
      vertex -0.0831966 1.32238 10
    endloop
  endfacet
  facet normal -0.125304 0.992118 0
    outer loop
      vertex -0.24828 1.30153 10
      vertex -0.0831966 1.32238 0
      vertex -0.24828 1.30153 0
    endloop
  endfacet
  facet normal -0.951054 -0.309025 0
    outer loop
      vertex -1.23195 -0.487764 0
      vertex -1.28337 -0.329514 10
      vertex -1.28337 -0.329514 0
    endloop
  endfacet
  facet normal -0.951054 -0.309025 0
    outer loop
      vertex -1.28337 -0.329514 10
      vertex -1.23195 -0.487764 0
      vertex -1.23195 -0.487764 10
    endloop
  endfacet
  facet normal 0.248686 0.968584 -0
    outer loop
      vertex 0.409447 1.26015 0
      vertex 0.24828 1.30153 10
      vertex 0.409447 1.26015 10
    endloop
  endfacet
  facet normal 0.248686 0.968584 0
    outer loop
      vertex 0.24828 1.30153 10
      vertex 0.409447 1.26015 0
      vertex 0.24828 1.30153 0
    endloop
  endfacet
  facet normal 0.481793 -0.876285 0
    outer loop
      vertex 0.564157 -1.1989 0
      vertex 0.70997 -1.11873 10
      vertex 0.564157 -1.1989 10
    endloop
  endfacet
  facet normal 0.481793 -0.876285 0
    outer loop
      vertex 0.70997 -1.11873 10
      vertex 0.564157 -1.1989 0
      vertex 0.70997 -1.11873 0
    endloop
  endfacet
  facet normal 0.770504 -0.637436 0
    outer loop
      vertex 0.965883 -0.907024 10
      vertex 1.07195 -0.778815 0
      vertex 1.07195 -0.778815 10
    endloop
  endfacet
  facet normal 0.770504 -0.637436 0
    outer loop
      vertex 1.07195 -0.778815 0
      vertex 0.965883 -0.907024 10
      vertex 0.965883 -0.907024 0
    endloop
  endfacet
  facet normal -0.248686 0.968584 0
    outer loop
      vertex -0.24828 1.30153 0
      vertex -0.409447 1.26015 10
      vertex -0.24828 1.30153 10
    endloop
  endfacet
  facet normal -0.248686 0.968584 0
    outer loop
      vertex -0.409447 1.26015 10
      vertex -0.24828 1.30153 0
      vertex -0.409447 1.26015 0
    endloop
  endfacet
  facet normal -0.904845 -0.425741 0
    outer loop
      vertex -1.16111 -0.638323 0
      vertex -1.23195 -0.487764 10
      vertex -1.23195 -0.487764 0
    endloop
  endfacet
  facet normal -0.904845 -0.425741 0
    outer loop
      vertex -1.23195 -0.487764 10
      vertex -1.16111 -0.638323 0
      vertex -1.16111 -0.638323 10
    endloop
  endfacet
  facet normal -0.770504 0.637436 0
    outer loop
      vertex -1.07195 0.778815 0
      vertex -0.965883 0.907024 10
      vertex -0.965883 0.907024 0
    endloop
  endfacet
  facet normal -0.770504 0.637436 0
    outer loop
      vertex -0.965883 0.907024 10
      vertex -1.07195 0.778815 0
      vertex -1.07195 0.778815 10
    endloop
  endfacet
  facet normal 0.904845 -0.425741 0
    outer loop
      vertex 1.16111 -0.638323 10
      vertex 1.23195 -0.487764 0
      vertex 1.23195 -0.487764 10
    endloop
  endfacet
  facet normal 0.904845 -0.425741 0
    outer loop
      vertex 1.23195 -0.487764 0
      vertex 1.16111 -0.638323 10
      vertex 1.16111 -0.638323 0
    endloop
  endfacet
  facet normal 0.368104 -0.929785 0
    outer loop
      vertex 0.409447 -1.26015 0
      vertex 0.564157 -1.1989 10
      vertex 0.409447 -1.26015 10
    endloop
  endfacet
  facet normal 0.368104 -0.929785 0
    outer loop
      vertex 0.564157 -1.1989 10
      vertex 0.409447 -1.26015 0
      vertex 0.564157 -1.1989 0
    endloop
  endfacet
  facet normal 0.248686 -0.968584 0
    outer loop
      vertex 0.24828 -1.30153 0
      vertex 0.409447 -1.26015 10
      vertex 0.24828 -1.30153 10
    endloop
  endfacet
  facet normal 0.248686 -0.968584 0
    outer loop
      vertex 0.409447 -1.26015 10
      vertex 0.24828 -1.30153 0
      vertex 0.409447 -1.26015 0
    endloop
  endfacet
  facet normal -0.368104 -0.929785 0
    outer loop
      vertex -0.564157 -1.1989 0
      vertex -0.409447 -1.26015 10
      vertex -0.564157 -1.1989 10
    endloop
  endfacet
  facet normal -0.368104 -0.929785 -0
    outer loop
      vertex -0.409447 -1.26015 10
      vertex -0.564157 -1.1989 0
      vertex -0.409447 -1.26015 0
    endloop
  endfacet
  facet normal 0.587769 0.809029 -0
    outer loop
      vertex 0.844586 1.02093 0
      vertex 0.70997 1.11873 10
      vertex 0.844586 1.02093 10
    endloop
  endfacet
  facet normal 0.587769 0.809029 0
    outer loop
      vertex 0.70997 1.11873 10
      vertex 0.844586 1.02093 0
      vertex 0.70997 1.11873 0
    endloop
  endfacet
  facet normal 0.125304 -0.992118 0
    outer loop
      vertex 0.0831966 -1.32238 0
      vertex 0.24828 -1.30153 10
      vertex 0.0831966 -1.32238 10
    endloop
  endfacet
  facet normal 0.125304 -0.992118 0
    outer loop
      vertex 0.24828 -1.30153 10
      vertex 0.0831966 -1.32238 0
      vertex 0.24828 -1.30153 0
    endloop
  endfacet
  facet normal -0.904845 0.425741 0
    outer loop
      vertex -1.23195 0.487764 0
      vertex -1.16111 0.638323 10
      vertex -1.16111 0.638323 0
    endloop
  endfacet
  facet normal -0.904845 0.425741 0
    outer loop
      vertex -1.16111 0.638323 10
      vertex -1.23195 0.487764 0
      vertex -1.23195 0.487764 10
    endloop
  endfacet
  facet normal -0.248686 -0.968584 0
    outer loop
      vertex -0.409447 -1.26015 0
      vertex -0.24828 -1.30153 10
      vertex -0.409447 -1.26015 10
    endloop
  endfacet
  facet normal -0.248686 -0.968584 -0
    outer loop
      vertex -0.24828 -1.30153 10
      vertex -0.409447 -1.26015 0
      vertex -0.24828 -1.30153 0
    endloop
  endfacet
  facet normal -0.368104 0.929785 0
    outer loop
      vertex -0.409447 1.26015 0
      vertex -0.564157 1.1989 10
      vertex -0.409447 1.26015 10
    endloop
  endfacet
  facet normal -0.368104 0.929785 0
    outer loop
      vertex -0.564157 1.1989 10
      vertex -0.409447 1.26015 0
      vertex -0.564157 1.1989 0
    endloop
  endfacet
  facet normal 0.982287 -0.187385 0
    outer loop
      vertex 1.28337 -0.329514 10
      vertex 1.31455 -0.166066 0
      vertex 1.31455 -0.166066 10
    endloop
  endfacet
  facet normal 0.982287 -0.187385 0
    outer loop
      vertex 1.31455 -0.166066 0
      vertex 1.28337 -0.329514 10
      vertex 1.28337 -0.329514 0
    endloop
  endfacet
  facet normal -0.481793 0.876285 0
    outer loop
      vertex -0.564157 1.1989 0
      vertex -0.70997 1.11873 10
      vertex -0.564157 1.1989 10
    endloop
  endfacet
  facet normal -0.481793 0.876285 0
    outer loop
      vertex -0.70997 1.11873 10
      vertex -0.564157 1.1989 0
      vertex -0.70997 1.11873 0
    endloop
  endfacet
  facet normal -0.587769 0.809029 0
    outer loop
      vertex -0.70997 1.11873 0
      vertex -0.844586 1.02093 10
      vertex -0.70997 1.11873 10
    endloop
  endfacet
  facet normal -0.587769 0.809029 0
    outer loop
      vertex -0.844586 1.02093 10
      vertex -0.70997 1.11873 0
      vertex -0.844586 1.02093 0
    endloop
  endfacet
  facet normal 0.481793 0.876285 -0
    outer loop
      vertex 0.70997 1.11873 0
      vertex 0.564157 1.1989 10
      vertex 0.70997 1.11873 10
    endloop
  endfacet
  facet normal 0.481793 0.876285 0
    outer loop
      vertex 0.564157 1.1989 10
      vertex 0.70997 1.11873 0
      vertex 0.564157 1.1989 0
    endloop
  endfacet
  facet normal -0.951054 0.309025 0
    outer loop
      vertex -1.28337 0.329514 0
      vertex -1.23195 0.487764 10
      vertex -1.23195 0.487764 0
    endloop
  endfacet
  facet normal -0.951054 0.309025 0
    outer loop
      vertex -1.23195 0.487764 10
      vertex -1.28337 0.329514 0
      vertex -1.28337 0.329514 10
    endloop
  endfacet
  facet normal -0.770504 -0.637436 0
    outer loop
      vertex -0.965883 -0.907024 0
      vertex -1.07195 -0.778815 10
      vertex -1.07195 -0.778815 0
    endloop
  endfacet
  facet normal -0.770504 -0.637436 0
    outer loop
      vertex -1.07195 -0.778815 10
      vertex -0.965883 -0.907024 0
      vertex -0.965883 -0.907024 10
    endloop
  endfacet
  facet normal -0.998026 -0.0628026 0
    outer loop
      vertex -1.31455 -0.166066 0
      vertex -1.325 0 10
      vertex -1.325 0 0
    endloop
  endfacet
  facet normal -0.998026 -0.0628026 0
    outer loop
      vertex -1.325 0 10
      vertex -1.31455 -0.166066 0
      vertex -1.31455 -0.166066 10
    endloop
  endfacet
  facet normal -0.587769 -0.809029 0
    outer loop
      vertex -0.844586 -1.02093 0
      vertex -0.70997 -1.11873 10
      vertex -0.844586 -1.02093 10
    endloop
  endfacet
  facet normal -0.587769 -0.809029 -0
    outer loop
      vertex -0.70997 -1.11873 10
      vertex -0.844586 -1.02093 0
      vertex -0.70997 -1.11873 0
    endloop
  endfacet
  facet normal 0.125304 0.992118 -0
    outer loop
      vertex 0.24828 1.30153 0
      vertex 0.0831966 1.32238 10
      vertex 0.24828 1.30153 10
    endloop
  endfacet
  facet normal 0.125304 0.992118 0
    outer loop
      vertex 0.0831966 1.32238 10
      vertex 0.24828 1.30153 0
      vertex 0.0831966 1.32238 0
    endloop
  endfacet
  facet normal 0.770504 0.637436 0
    outer loop
      vertex 1.07195 0.778815 10
      vertex 0.965883 0.907024 0
      vertex 0.965883 0.907024 10
    endloop
  endfacet
  facet normal 0.770504 0.637436 0
    outer loop
      vertex 0.965883 0.907024 0
      vertex 1.07195 0.778815 10
      vertex 1.07195 0.778815 0
    endloop
  endfacet
  facet normal 0.368104 0.929785 -0
    outer loop
      vertex 0.564157 1.1989 0
      vertex 0.409447 1.26015 10
      vertex 0.564157 1.1989 10
    endloop
  endfacet
  facet normal 0.368104 0.929785 0
    outer loop
      vertex 0.409447 1.26015 10
      vertex 0.564157 1.1989 0
      vertex 0.409447 1.26015 0
    endloop
  endfacet
  facet normal 0 0 -1
    outer loop
      vertex 1.31455 -0.166066 0
      vertex 1.31455 0.166066 0
      vertex 1.325 0 0
    endloop
  endfacet
  facet normal 0 0 -1
    outer loop
      vertex 1.28337 -0.329514 0
      vertex 1.31455 0.166066 0
      vertex 1.31455 -0.166066 0
    endloop
  endfacet
  facet normal 0 0 -1
    outer loop
      vertex 1.28337 -0.329514 0
      vertex 1.28337 0.329514 0
      vertex 1.31455 0.166066 0
    endloop
  endfacet
  facet normal 0 0 -1
    outer loop
      vertex 1.23195 -0.487764 0
      vertex 1.28337 0.329514 0
      vertex 1.28337 -0.329514 0
    endloop
  endfacet
  facet normal 0 0 -1
    outer loop
      vertex 1.23195 -0.487764 0
      vertex 1.23195 0.487764 0
      vertex 1.28337 0.329514 0
    endloop
  endfacet
  facet normal 0 0 -1
    outer loop
      vertex 1.16111 -0.638323 0
      vertex 1.23195 0.487764 0
      vertex 1.23195 -0.487764 0
    endloop
  endfacet
  facet normal 0 0 -1
    outer loop
      vertex 1.16111 -0.638323 0
      vertex 1.16111 0.638323 0
      vertex 1.23195 0.487764 0
    endloop
  endfacet
  facet normal 0 0 -1
    outer loop
      vertex 1.07195 -0.778815 0
      vertex 1.16111 0.638323 0
      vertex 1.16111 -0.638323 0
    endloop
  endfacet
  facet normal 0 0 -1
    outer loop
      vertex 1.07195 -0.778815 0
      vertex 1.07195 0.778815 0
      vertex 1.16111 0.638323 0
    endloop
  endfacet
  facet normal 0 0 -1
    outer loop
      vertex 0.965883 -0.907024 0
      vertex 1.07195 0.778815 0
      vertex 1.07195 -0.778815 0
    endloop
  endfacet
  facet normal 0 0 -1
    outer loop
      vertex 0.965883 -0.907024 0
      vertex 0.965883 0.907024 0
      vertex 1.07195 0.778815 0
    endloop
  endfacet
  facet normal 0 0 -1
    outer loop
      vertex 0.844586 -1.02093 0
      vertex 0.965883 0.907024 0
      vertex 0.965883 -0.907024 0
    endloop
  endfacet
  facet normal 0 0 -1
    outer loop
      vertex 0.844586 -1.02093 0
      vertex 0.844586 1.02093 0
      vertex 0.965883 0.907024 0
    endloop
  endfacet
  facet normal 0 0 -1
    outer loop
      vertex 0.70997 -1.11873 0
      vertex 0.844586 1.02093 0
      vertex 0.844586 -1.02093 0
    endloop
  endfacet
  facet normal 0 0 -1
    outer loop
      vertex 0.70997 -1.11873 0
      vertex 0.70997 1.11873 0
      vertex 0.844586 1.02093 0
    endloop
  endfacet
  facet normal 0 0 -1
    outer loop
      vertex 0.564157 -1.1989 0
      vertex 0.70997 1.11873 0
      vertex 0.70997 -1.11873 0
    endloop
  endfacet
  facet normal 0 0 -1
    outer loop
      vertex 0.564157 -1.1989 0
      vertex 0.564157 1.1989 0
      vertex 0.70997 1.11873 0
    endloop
  endfacet
  facet normal 0 0 -1
    outer loop
      vertex 0.409447 -1.26015 0
      vertex 0.564157 1.1989 0
      vertex 0.564157 -1.1989 0
    endloop
  endfacet
  facet normal 0 0 -1
    outer loop
      vertex 0.409447 -1.26015 0
      vertex 0.409447 1.26015 0
      vertex 0.564157 1.1989 0
    endloop
  endfacet
  facet normal 0 0 -1
    outer loop
      vertex 0.24828 -1.30153 0
      vertex 0.409447 1.26015 0
      vertex 0.409447 -1.26015 0
    endloop
  endfacet
  facet normal 0 0 -1
    outer loop
      vertex 0.24828 -1.30153 0
      vertex 0.24828 1.30153 0
      vertex 0.409447 1.26015 0
    endloop
  endfacet
  facet normal 0 0 -1
    outer loop
      vertex 0.0831966 -1.32238 0
      vertex 0.24828 1.30153 0
      vertex 0.24828 -1.30153 0
    endloop
  endfacet
  facet normal 0 0 -1
    outer loop
      vertex 0.0831966 -1.32238 0
      vertex 0.0831966 1.32238 0
      vertex 0.24828 1.30153 0
    endloop
  endfacet
  facet normal 0 0 -1
    outer loop
      vertex -0.0831966 -1.32238 0
      vertex 0.0831966 1.32238 0
      vertex 0.0831966 -1.32238 0
    endloop
  endfacet
  facet normal 0 0 -1
    outer loop
      vertex -0.0831966 -1.32238 0
      vertex -0.0831966 1.32238 0
      vertex 0.0831966 1.32238 0
    endloop
  endfacet
  facet normal 0 0 -1
    outer loop
      vertex -0.24828 -1.30153 0
      vertex -0.0831966 1.32238 0
      vertex -0.0831966 -1.32238 0
    endloop
  endfacet
  facet normal 0 0 -1
    outer loop
      vertex -0.24828 -1.30153 0
      vertex -0.24828 1.30153 0
      vertex -0.0831966 1.32238 0
    endloop
  endfacet
  facet normal 0 0 -1
    outer loop
      vertex -0.409447 -1.26015 0
      vertex -0.24828 1.30153 0
      vertex -0.24828 -1.30153 0
    endloop
  endfacet
  facet normal 0 0 -1
    outer loop
      vertex -0.409447 -1.26015 0
      vertex -0.409447 1.26015 0
      vertex -0.24828 1.30153 0
    endloop
  endfacet
  facet normal 0 0 -1
    outer loop
      vertex -0.564157 -1.1989 0
      vertex -0.409447 1.26015 0
      vertex -0.409447 -1.26015 0
    endloop
  endfacet
  facet normal 0 0 -1
    outer loop
      vertex -0.564157 -1.1989 0
      vertex -0.564157 1.1989 0
      vertex -0.409447 1.26015 0
    endloop
  endfacet
  facet normal 0 0 -1
    outer loop
      vertex -0.70997 -1.11873 0
      vertex -0.564157 1.1989 0
      vertex -0.564157 -1.1989 0
    endloop
  endfacet
  facet normal 0 0 -1
    outer loop
      vertex -0.70997 -1.11873 0
      vertex -0.70997 1.11873 0
      vertex -0.564157 1.1989 0
    endloop
  endfacet
  facet normal 0 0 -1
    outer loop
      vertex -0.844586 -1.02093 0
      vertex -0.70997 1.11873 0
      vertex -0.70997 -1.11873 0
    endloop
  endfacet
  facet normal 0 0 -1
    outer loop
      vertex -0.844586 -1.02093 0
      vertex -0.844586 1.02093 0
      vertex -0.70997 1.11873 0
    endloop
  endfacet
  facet normal 0 0 -1
    outer loop
      vertex -0.965883 -0.907024 0
      vertex -0.844586 1.02093 0
      vertex -0.844586 -1.02093 0
    endloop
  endfacet
  facet normal 0 0 -1
    outer loop
      vertex -0.965883 -0.907024 0
      vertex -0.965883 0.907024 0
      vertex -0.844586 1.02093 0
    endloop
  endfacet
  facet normal 0 0 -1
    outer loop
      vertex -1.07195 -0.778815 0
      vertex -0.965883 0.907024 0
      vertex -0.965883 -0.907024 0
    endloop
  endfacet
  facet normal 0 0 -1
    outer loop
      vertex -1.07195 -0.778815 0
      vertex -1.07195 0.778815 0
      vertex -0.965883 0.907024 0
    endloop
  endfacet
  facet normal 0 0 -1
    outer loop
      vertex -1.16111 -0.638323 0
      vertex -1.07195 0.778815 0
      vertex -1.07195 -0.778815 0
    endloop
  endfacet
  facet normal 0 0 -1
    outer loop
      vertex -1.16111 -0.638323 0
      vertex -1.16111 0.638323 0
      vertex -1.07195 0.778815 0
    endloop
  endfacet
  facet normal 0 0 -1
    outer loop
      vertex -1.23195 -0.487764 0
      vertex -1.16111 0.638323 0
      vertex -1.16111 -0.638323 0
    endloop
  endfacet
  facet normal 0 0 -1
    outer loop
      vertex -1.23195 -0.487764 0
      vertex -1.23195 0.487764 0
      vertex -1.16111 0.638323 0
    endloop
  endfacet
  facet normal 0 0 -1
    outer loop
      vertex -1.28337 -0.329514 0
      vertex -1.23195 0.487764 0
      vertex -1.23195 -0.487764 0
    endloop
  endfacet
  facet normal 0 0 -1
    outer loop
      vertex -1.28337 -0.329514 0
      vertex -1.28337 0.329514 0
      vertex -1.23195 0.487764 0
    endloop
  endfacet
  facet normal 0 0 -1
    outer loop
      vertex -1.31455 -0.166066 0
      vertex -1.28337 0.329514 0
      vertex -1.28337 -0.329514 0
    endloop
  endfacet
  facet normal 0 0 -1
    outer loop
      vertex -1.31455 -0.166066 0
      vertex -1.31455 0.166066 0
      vertex -1.28337 0.329514 0
    endloop
  endfacet
  facet normal 0 -0 -1
    outer loop
      vertex -1.31455 0.166066 0
      vertex -1.31455 -0.166066 0
      vertex -1.325 0 0
    endloop
  endfacet
  facet normal -0.684549 -0.728967 0
    outer loop
      vertex -0.965883 -0.907024 0
      vertex -0.844586 -1.02093 10
      vertex -0.965883 -0.907024 10
    endloop
  endfacet
  facet normal -0.684549 -0.728967 -0
    outer loop
      vertex -0.844586 -1.02093 10
      vertex -0.965883 -0.907024 0
      vertex -0.844586 -1.02093 0
    endloop
  endfacet
  facet normal -0.684549 0.728967 0
    outer loop
      vertex -0.844586 1.02093 0
      vertex -0.965883 0.907024 10
      vertex -0.844586 1.02093 10
    endloop
  endfacet
  facet normal -0.684549 0.728967 0
    outer loop
      vertex -0.965883 0.907024 10
      vertex -0.844586 1.02093 0
      vertex -0.965883 0.907024 0
    endloop
  endfacet
  facet normal 0 -1 0
    outer loop
      vertex -0.0831966 -1.32238 0
      vertex 0.0831966 -1.32238 10
      vertex -0.0831966 -1.32238 10
    endloop
  endfacet
  facet normal 0 -1 -0
    outer loop
      vertex 0.0831966 -1.32238 10
      vertex -0.0831966 -1.32238 0
      vertex 0.0831966 -1.32238 0
    endloop
  endfacet
  facet normal -0.982287 -0.187385 0
    outer loop
      vertex -1.28337 -0.329514 0
      vertex -1.31455 -0.166066 10
      vertex -1.31455 -0.166066 0
    endloop
  endfacet
  facet normal -0.982287 -0.187385 0
    outer loop
      vertex -1.31455 -0.166066 10
      vertex -1.28337 -0.329514 0
      vertex -1.28337 -0.329514 10
    endloop
  endfacet
  facet normal -0.998026 0.0628026 0
    outer loop
      vertex -1.325 0 0
      vertex -1.31455 0.166066 10
      vertex -1.31455 0.166066 0
    endloop
  endfacet
  facet normal -0.998026 0.0628026 0
    outer loop
      vertex -1.31455 0.166066 10
      vertex -1.325 0 0
      vertex -1.325 0 10
    endloop
  endfacet
  facet normal -0.481793 -0.876285 0
    outer loop
      vertex -0.70997 -1.11873 0
      vertex -0.564157 -1.1989 10
      vertex -0.70997 -1.11873 10
    endloop
  endfacet
  facet normal -0.481793 -0.876285 -0
    outer loop
      vertex -0.564157 -1.1989 10
      vertex -0.70997 -1.11873 0
      vertex -0.564157 -1.1989 0
    endloop
  endfacet
  facet normal 0 0 1
    outer loop
      vertex 1.175 0 10
      vertex 1.325 0 10
      vertex 1.31455 0.166066 10
    endloop
  endfacet
  facet normal 0 0 1
    outer loop
      vertex 1.16573 0.147266 10
      vertex 1.31455 0.166066 10
      vertex 1.28337 0.329514 10
    endloop
  endfacet
  facet normal 0 0 1
    outer loop
      vertex 1.325 0 10
      vertex 1.175 0 10
      vertex 1.31455 -0.166066 10
    endloop
  endfacet
  facet normal 0 0 1
    outer loop
      vertex 1.13808 0.292211 10
      vertex 1.28337 0.329514 10
      vertex 1.23195 0.487764 10
    endloop
  endfacet
  facet normal -0 0 1
    outer loop
      vertex 1.16573 -0.147266 10
      vertex 1.31455 -0.166066 10
      vertex 1.175 0 10
    endloop
  endfacet
  facet normal 0 0 1
    outer loop
      vertex 1.31455 -0.166066 10
      vertex 1.16573 -0.147266 10
      vertex 1.28337 -0.329514 10
    endloop
  endfacet
  facet normal 0 0 1
    outer loop
      vertex 1.31455 0.166066 10
      vertex 1.16573 0.147266 10
      vertex 1.175 0 10
    endloop
  endfacet
  facet normal 0 0 1
    outer loop
      vertex 1.09249 0.432546 10
      vertex 1.23195 0.487764 10
      vertex 1.16111 0.638323 10
    endloop
  endfacet
  facet normal 0 0 1
    outer loop
      vertex 1.28337 0.329514 10
      vertex 1.13808 0.292211 10
      vertex 1.16573 0.147266 10
    endloop
  endfacet
  facet normal 0 0 1
    outer loop
      vertex 1.23195 0.487764 10
      vertex 1.09249 0.432546 10
      vertex 1.13808 0.292211 10
    endloop
  endfacet
  facet normal 0 0 1
    outer loop
      vertex 1.02966 0.56606 10
      vertex 1.16111 0.638323 10
      vertex 1.07195 0.778815 10
    endloop
  endfacet
  facet normal 0 0 1
    outer loop
      vertex 1.16111 0.638323 10
      vertex 1.02966 0.56606 10
      vertex 1.09249 0.432546 10
    endloop
  endfacet
  facet normal 0 0 1
    outer loop
      vertex 0.950595 0.690647 10
      vertex 1.07195 0.778815 10
      vertex 0.965883 0.907024 10
    endloop
  endfacet
  facet normal 0 0 1
    outer loop
      vertex 1.07195 0.778815 10
      vertex 0.950595 0.690647 10
      vertex 1.02966 0.56606 10
    endloop
  endfacet
  facet normal 0 0 1
    outer loop
      vertex 0.965883 0.907024 10
      vertex 0.856538 0.804342 10
      vertex 0.950595 0.690647 10
    endloop
  endfacet
  facet normal 0 0 1
    outer loop
      vertex 0.844586 1.02093 10
      vertex 0.856538 0.804342 10
      vertex 0.965883 0.907024 10
    endloop
  endfacet
  facet normal 0 0 1
    outer loop
      vertex 0.844586 1.02093 10
      vertex 0.748973 0.905353 10
      vertex 0.856538 0.804342 10
    endloop
  endfacet
  facet normal 0 0 1
    outer loop
      vertex 0.70997 1.11873 10
      vertex 0.748973 0.905353 10
      vertex 0.844586 1.02093 10
    endloop
  endfacet
  facet normal 0 0 1
    outer loop
      vertex 0.70997 1.11873 10
      vertex 0.629596 0.992085 10
      vertex 0.748973 0.905353 10
    endloop
  endfacet
  facet normal 0 0 1
    outer loop
      vertex 0.564157 1.1989 10
      vertex 0.629596 0.992085 10
      vertex 0.70997 1.11873 10
    endloop
  endfacet
  facet normal 0 0 1
    outer loop
      vertex 0.564157 1.1989 10
      vertex 0.50029 1.06317 10
      vertex 0.629596 0.992085 10
    endloop
  endfacet
  facet normal 0 0 1
    outer loop
      vertex 0.409447 1.26015 10
      vertex 0.50029 1.06317 10
      vertex 0.564157 1.1989 10
    endloop
  endfacet
  facet normal 0 0 1
    outer loop
      vertex 0.409447 1.26015 10
      vertex 0.363094 1.11749 10
      vertex 0.50029 1.06317 10
    endloop
  endfacet
  facet normal 0 0 1
    outer loop
      vertex 0.24828 1.30153 10
      vertex 0.363094 1.11749 10
      vertex 0.409447 1.26015 10
    endloop
  endfacet
  facet normal 0 0 1
    outer loop
      vertex 0.24828 1.30153 10
      vertex 0.220173 1.15419 10
      vertex 0.363094 1.11749 10
    endloop
  endfacet
  facet normal 0 0 1
    outer loop
      vertex 0.0831966 1.32238 10
      vertex 0.220173 1.15419 10
      vertex 0.24828 1.30153 10
    endloop
  endfacet
  facet normal 0 0 1
    outer loop
      vertex 0.0831966 1.32238 10
      vertex 0.0737782 1.17268 10
      vertex 0.220173 1.15419 10
    endloop
  endfacet
  facet normal 0 0 1
    outer loop
      vertex 0.0831966 1.32238 10
      vertex -0.0737782 1.17268 10
      vertex 0.0737782 1.17268 10
    endloop
  endfacet
  facet normal -0 0 1
    outer loop
      vertex -0.0831966 1.32238 10
      vertex -0.0737782 1.17268 10
      vertex 0.0831966 1.32238 10
    endloop
  endfacet
  facet normal 0 0 1
    outer loop
      vertex -0.0831966 1.32238 10
      vertex -0.220173 1.15419 10
      vertex -0.0737782 1.17268 10
    endloop
  endfacet
  facet normal -0 0 1
    outer loop
      vertex -0.24828 1.30153 10
      vertex -0.220173 1.15419 10
      vertex -0.0831966 1.32238 10
    endloop
  endfacet
  facet normal 0 0 1
    outer loop
      vertex -0.24828 1.30153 10
      vertex -0.363094 1.11749 10
      vertex -0.220173 1.15419 10
    endloop
  endfacet
  facet normal -0 0 1
    outer loop
      vertex -0.409447 1.26015 10
      vertex -0.363094 1.11749 10
      vertex -0.24828 1.30153 10
    endloop
  endfacet
  facet normal 0 0 1
    outer loop
      vertex -0.409447 1.26015 10
      vertex -0.50029 1.06317 10
      vertex -0.363094 1.11749 10
    endloop
  endfacet
  facet normal -0 0 1
    outer loop
      vertex -0.564157 1.1989 10
      vertex -0.50029 1.06317 10
      vertex -0.409447 1.26015 10
    endloop
  endfacet
  facet normal 0 0 1
    outer loop
      vertex -0.564157 1.1989 10
      vertex -0.629596 0.992085 10
      vertex -0.50029 1.06317 10
    endloop
  endfacet
  facet normal -0 0 1
    outer loop
      vertex -0.70997 1.11873 10
      vertex -0.629596 0.992085 10
      vertex -0.564157 1.1989 10
    endloop
  endfacet
  facet normal 0 0 1
    outer loop
      vertex -0.70997 1.11873 10
      vertex -0.748973 0.905353 10
      vertex -0.629596 0.992085 10
    endloop
  endfacet
  facet normal -0 0 1
    outer loop
      vertex -0.844586 1.02093 10
      vertex -0.748973 0.905353 10
      vertex -0.70997 1.11873 10
    endloop
  endfacet
  facet normal 0 0 1
    outer loop
      vertex -0.844586 1.02093 10
      vertex -0.856538 0.804342 10
      vertex -0.748973 0.905353 10
    endloop
  endfacet
  facet normal -0 0 1
    outer loop
      vertex -0.965883 0.907024 10
      vertex -0.856538 0.804342 10
      vertex -0.844586 1.02093 10
    endloop
  endfacet
  facet normal 0 0 1
    outer loop
      vertex -0.856538 0.804342 10
      vertex -0.965883 0.907024 10
      vertex -0.950595 0.690647 10
    endloop
  endfacet
  facet normal -0 0 1
    outer loop
      vertex -1.07195 0.778815 10
      vertex -0.950595 0.690647 10
      vertex -0.965883 0.907024 10
    endloop
  endfacet
  facet normal 0 0 1
    outer loop
      vertex -0.950595 0.690647 10
      vertex -1.07195 0.778815 10
      vertex -1.02966 0.56606 10
    endloop
  endfacet
  facet normal -0 0 1
    outer loop
      vertex -1.16111 0.638323 10
      vertex -1.02966 0.56606 10
      vertex -1.07195 0.778815 10
    endloop
  endfacet
  facet normal 0 0 1
    outer loop
      vertex -1.02966 0.56606 10
      vertex -1.16111 0.638323 10
      vertex -1.09249 0.432546 10
    endloop
  endfacet
  facet normal -0 0 1
    outer loop
      vertex -1.23195 0.487764 10
      vertex -1.09249 0.432546 10
      vertex -1.16111 0.638323 10
    endloop
  endfacet
  facet normal 0 0 1
    outer loop
      vertex -1.09249 0.432546 10
      vertex -1.23195 0.487764 10
      vertex -1.13808 0.292211 10
    endloop
  endfacet
  facet normal -0 0 1
    outer loop
      vertex -1.28337 0.329514 10
      vertex -1.13808 0.292211 10
      vertex -1.23195 0.487764 10
    endloop
  endfacet
  facet normal 0 0 1
    outer loop
      vertex -1.13808 0.292211 10
      vertex -1.28337 0.329514 10
      vertex -1.16573 0.147266 10
    endloop
  endfacet
  facet normal -0 0 1
    outer loop
      vertex 1.13808 -0.292211 10
      vertex 1.28337 -0.329514 10
      vertex 1.16573 -0.147266 10
    endloop
  endfacet
  facet normal 0 0 1
    outer loop
      vertex 1.28337 -0.329514 10
      vertex 1.13808 -0.292211 10
      vertex 1.23195 -0.487764 10
    endloop
  endfacet
  facet normal -0 0 1
    outer loop
      vertex 1.09249 -0.432546 10
      vertex 1.23195 -0.487764 10
      vertex 1.13808 -0.292211 10
    endloop
  endfacet
  facet normal 0 0 1
    outer loop
      vertex 1.23195 -0.487764 10
      vertex 1.09249 -0.432546 10
      vertex 1.16111 -0.638323 10
    endloop
  endfacet
  facet normal -0 0 1
    outer loop
      vertex 1.02966 -0.56606 10
      vertex 1.16111 -0.638323 10
      vertex 1.09249 -0.432546 10
    endloop
  endfacet
  facet normal 0 0 1
    outer loop
      vertex 1.16111 -0.638323 10
      vertex 1.02966 -0.56606 10
      vertex 1.07195 -0.778815 10
    endloop
  endfacet
  facet normal -0 0 1
    outer loop
      vertex 0.950595 -0.690647 10
      vertex 1.07195 -0.778815 10
      vertex 1.02966 -0.56606 10
    endloop
  endfacet
  facet normal 0 0 1
    outer loop
      vertex 1.07195 -0.778815 10
      vertex 0.950595 -0.690647 10
      vertex 0.965883 -0.907024 10
    endloop
  endfacet
  facet normal -0 0 1
    outer loop
      vertex 0.856538 -0.804342 10
      vertex 0.965883 -0.907024 10
      vertex 0.950595 -0.690647 10
    endloop
  endfacet
  facet normal 0 0 1
    outer loop
      vertex 0.856538 -0.804342 10
      vertex 0.844586 -1.02093 10
      vertex 0.965883 -0.907024 10
    endloop
  endfacet
  facet normal -0 0 1
    outer loop
      vertex 0.748973 -0.905353 10
      vertex 0.844586 -1.02093 10
      vertex 0.856538 -0.804342 10
    endloop
  endfacet
  facet normal 0 0 1
    outer loop
      vertex 0.748973 -0.905353 10
      vertex 0.70997 -1.11873 10
      vertex 0.844586 -1.02093 10
    endloop
  endfacet
  facet normal -0 0 1
    outer loop
      vertex 0.629596 -0.992085 10
      vertex 0.70997 -1.11873 10
      vertex 0.748973 -0.905353 10
    endloop
  endfacet
  facet normal 0 0 1
    outer loop
      vertex 0.629596 -0.992085 10
      vertex 0.564157 -1.1989 10
      vertex 0.70997 -1.11873 10
    endloop
  endfacet
  facet normal -0 0 1
    outer loop
      vertex 0.50029 -1.06317 10
      vertex 0.564157 -1.1989 10
      vertex 0.629596 -0.992085 10
    endloop
  endfacet
  facet normal 0 0 1
    outer loop
      vertex 0.50029 -1.06317 10
      vertex 0.409447 -1.26015 10
      vertex 0.564157 -1.1989 10
    endloop
  endfacet
  facet normal -0 0 1
    outer loop
      vertex 0.363094 -1.11749 10
      vertex 0.409447 -1.26015 10
      vertex 0.50029 -1.06317 10
    endloop
  endfacet
  facet normal 0 0 1
    outer loop
      vertex 0.363094 -1.11749 10
      vertex 0.24828 -1.30153 10
      vertex 0.409447 -1.26015 10
    endloop
  endfacet
  facet normal -0 0 1
    outer loop
      vertex 0.220173 -1.15419 10
      vertex 0.24828 -1.30153 10
      vertex 0.363094 -1.11749 10
    endloop
  endfacet
  facet normal 0 0 1
    outer loop
      vertex 0.220173 -1.15419 10
      vertex 0.0831966 -1.32238 10
      vertex 0.24828 -1.30153 10
    endloop
  endfacet
  facet normal -0 0 1
    outer loop
      vertex 0.0737782 -1.17268 10
      vertex 0.0831966 -1.32238 10
      vertex 0.220173 -1.15419 10
    endloop
  endfacet
  facet normal -0 0 1
    outer loop
      vertex -0.0737782 -1.17268 10
      vertex 0.0831966 -1.32238 10
      vertex 0.0737782 -1.17268 10
    endloop
  endfacet
  facet normal 0 0 1
    outer loop
      vertex -0.0737782 -1.17268 10
      vertex -0.0831966 -1.32238 10
      vertex 0.0831966 -1.32238 10
    endloop
  endfacet
  facet normal 0 0 1
    outer loop
      vertex -0.220173 -1.15419 10
      vertex -0.0831966 -1.32238 10
      vertex -0.0737782 -1.17268 10
    endloop
  endfacet
  facet normal 0 0 1
    outer loop
      vertex -0.220173 -1.15419 10
      vertex -0.24828 -1.30153 10
      vertex -0.0831966 -1.32238 10
    endloop
  endfacet
  facet normal 0 0 1
    outer loop
      vertex -0.363094 -1.11749 10
      vertex -0.24828 -1.30153 10
      vertex -0.220173 -1.15419 10
    endloop
  endfacet
  facet normal 0 0 1
    outer loop
      vertex -0.363094 -1.11749 10
      vertex -0.409447 -1.26015 10
      vertex -0.24828 -1.30153 10
    endloop
  endfacet
  facet normal 0 0 1
    outer loop
      vertex -0.50029 -1.06317 10
      vertex -0.409447 -1.26015 10
      vertex -0.363094 -1.11749 10
    endloop
  endfacet
  facet normal 0 0 1
    outer loop
      vertex -0.50029 -1.06317 10
      vertex -0.564157 -1.1989 10
      vertex -0.409447 -1.26015 10
    endloop
  endfacet
  facet normal 0 0 1
    outer loop
      vertex -0.629596 -0.992085 10
      vertex -0.564157 -1.1989 10
      vertex -0.50029 -1.06317 10
    endloop
  endfacet
  facet normal 0 0 1
    outer loop
      vertex -0.629596 -0.992085 10
      vertex -0.70997 -1.11873 10
      vertex -0.564157 -1.1989 10
    endloop
  endfacet
  facet normal 0 0 1
    outer loop
      vertex -0.748973 -0.905353 10
      vertex -0.70997 -1.11873 10
      vertex -0.629596 -0.992085 10
    endloop
  endfacet
  facet normal 0 0 1
    outer loop
      vertex -0.748973 -0.905353 10
      vertex -0.844586 -1.02093 10
      vertex -0.70997 -1.11873 10
    endloop
  endfacet
  facet normal 0 0 1
    outer loop
      vertex -0.856538 -0.804342 10
      vertex -0.844586 -1.02093 10
      vertex -0.748973 -0.905353 10
    endloop
  endfacet
  facet normal 0 0 1
    outer loop
      vertex -0.965883 -0.907024 10
      vertex -0.856538 -0.804342 10
      vertex -0.950595 -0.690647 10
    endloop
  endfacet
  facet normal 0 0 1
    outer loop
      vertex -0.856538 -0.804342 10
      vertex -0.965883 -0.907024 10
      vertex -0.844586 -1.02093 10
    endloop
  endfacet
  facet normal 0 0 1
    outer loop
      vertex -1.07195 -0.778815 10
      vertex -0.950595 -0.690647 10
      vertex -1.02966 -0.56606 10
    endloop
  endfacet
  facet normal 0 0 1
    outer loop
      vertex -0.950595 -0.690647 10
      vertex -1.07195 -0.778815 10
      vertex -0.965883 -0.907024 10
    endloop
  endfacet
  facet normal 0 0 1
    outer loop
      vertex -1.16111 -0.638323 10
      vertex -1.02966 -0.56606 10
      vertex -1.09249 -0.432546 10
    endloop
  endfacet
  facet normal 0 0 1
    outer loop
      vertex -1.23195 -0.487764 10
      vertex -1.09249 -0.432546 10
      vertex -1.13808 -0.292211 10
    endloop
  endfacet
  facet normal 0 0 1
    outer loop
      vertex -1.02966 -0.56606 10
      vertex -1.16111 -0.638323 10
      vertex -1.07195 -0.778815 10
    endloop
  endfacet
  facet normal 0 0 1
    outer loop
      vertex -1.28337 -0.329514 10
      vertex -1.13808 -0.292211 10
      vertex -1.16573 -0.147266 10
    endloop
  endfacet
  facet normal 0 0 1
    outer loop
      vertex -1.31455 -0.166066 10
      vertex -1.16573 -0.147266 10
      vertex -1.175 0 10
    endloop
  endfacet
  facet normal -0 0 1
    outer loop
      vertex -1.31455 0.166066 10
      vertex -1.16573 0.147266 10
      vertex -1.28337 0.329514 10
    endloop
  endfacet
  facet normal 0 0 1
    outer loop
      vertex -1.09249 -0.432546 10
      vertex -1.23195 -0.487764 10
      vertex -1.16111 -0.638323 10
    endloop
  endfacet
  facet normal 0 0 1
    outer loop
      vertex -1.16573 0.147266 10
      vertex -1.31455 0.166066 10
      vertex -1.175 0 10
    endloop
  endfacet
  facet normal 0 0 1
    outer loop
      vertex -1.13808 -0.292211 10
      vertex -1.28337 -0.329514 10
      vertex -1.23195 -0.487764 10
    endloop
  endfacet
  facet normal 0 0 1
    outer loop
      vertex -1.325 0 10
      vertex -1.175 0 10
      vertex -1.31455 0.166066 10
    endloop
  endfacet
  facet normal 0 0 1
    outer loop
      vertex -1.16573 -0.147266 10
      vertex -1.31455 -0.166066 10
      vertex -1.28337 -0.329514 10
    endloop
  endfacet
  facet normal 0 0 1
    outer loop
      vertex -1.175 0 10
      vertex -1.325 0 10
      vertex -1.31455 -0.166066 10
    endloop
  endfacet
  facet normal 0.684549 0.728967 -0
    outer loop
      vertex 0.965883 0.907024 0
      vertex 0.844586 1.02093 10
      vertex 0.965883 0.907024 10
    endloop
  endfacet
  facet normal 0.684549 0.728967 0
    outer loop
      vertex 0.844586 1.02093 10
      vertex 0.965883 0.907024 0
      vertex 0.844586 1.02093 0
    endloop
  endfacet
  facet normal 0 1 -0
    outer loop
      vertex 0.0831966 1.32238 0
      vertex -0.0831966 1.32238 10
      vertex 0.0831966 1.32238 10
    endloop
  endfacet
  facet normal 0 1 0
    outer loop
      vertex -0.0831966 1.32238 10
      vertex 0.0831966 1.32238 0
      vertex -0.0831966 1.32238 0
    endloop
  endfacet
  facet normal -0.844325 0.535831 0
    outer loop
      vertex -1.16111 0.638323 0
      vertex -1.07195 0.778815 10
      vertex -1.07195 0.778815 0
    endloop
  endfacet
  facet normal -0.844325 0.535831 0
    outer loop
      vertex -1.07195 0.778815 10
      vertex -1.16111 0.638323 0
      vertex -1.16111 0.638323 10
    endloop
  endfacet
  facet normal 0.587769 -0.809029 0
    outer loop
      vertex 0.70997 -1.11873 0
      vertex 0.844586 -1.02093 10
      vertex 0.70997 -1.11873 10
    endloop
  endfacet
  facet normal 0.587769 -0.809029 0
    outer loop
      vertex 0.844586 -1.02093 10
      vertex 0.70997 -1.11873 0
      vertex 0.844586 -1.02093 0
    endloop
  endfacet
  facet normal 0.248716 0.968576 -0
    outer loop
      vertex 0.363094 1.11749 10
      vertex 0.220173 1.15419 12
      vertex 0.363094 1.11749 12
    endloop
  endfacet
  facet normal 0.248716 0.968576 0
    outer loop
      vertex 0.220173 1.15419 12
      vertex 0.363094 1.11749 10
      vertex 0.220173 1.15419 10
    endloop
  endfacet
  facet normal 0.125307 0.992118 -0
    outer loop
      vertex 0.220173 1.15419 10
      vertex 0.0737782 1.17268 12
      vertex 0.220173 1.15419 12
    endloop
  endfacet
  facet normal 0.125307 0.992118 0
    outer loop
      vertex 0.0737782 1.17268 12
      vertex 0.220173 1.15419 10
      vertex 0.0737782 1.17268 10
    endloop
  endfacet
  facet normal 0.982287 0.187383 0
    outer loop
      vertex 1.16573 0.147266 12
      vertex 1.13808 0.292211 10
      vertex 1.13808 0.292211 12
    endloop
  endfacet
  facet normal 0.982287 0.187383 0
    outer loop
      vertex 1.13808 0.292211 10
      vertex 1.16573 0.147266 12
      vertex 1.16573 0.147266 10
    endloop
  endfacet
  facet normal 0.998025 0.062823 0
    outer loop
      vertex 1.175 0 12
      vertex 1.16573 0.147266 10
      vertex 1.16573 0.147266 12
    endloop
  endfacet
  facet normal 0.998025 0.062823 0
    outer loop
      vertex 1.16573 0.147266 10
      vertex 1.175 0 12
      vertex 1.175 0 10
    endloop
  endfacet
  facet normal 0.951072 0.30897 0
    outer loop
      vertex 1.13808 0.292211 12
      vertex 1.09249 0.432546 10
      vertex 1.09249 0.432546 12
    endloop
  endfacet
  facet normal 0.951072 0.30897 0
    outer loop
      vertex 1.09249 0.432546 10
      vertex 1.13808 0.292211 12
      vertex 1.13808 0.292211 10
    endloop
  endfacet
  facet normal 0.844329 0.535825 0
    outer loop
      vertex 1.02966 0.56606 12
      vertex 0.950595 0.690647 10
      vertex 0.950595 0.690647 12
    endloop
  endfacet
  facet normal 0.844329 0.535825 0
    outer loop
      vertex 0.950595 0.690647 10
      vertex 1.02966 0.56606 12
      vertex 1.02966 0.56606 10
    endloop
  endfacet
  facet normal 0.368126 -0.929776 0
    outer loop
      vertex 0.363094 -1.11749 10
      vertex 0.50029 -1.06317 12
      vertex 0.363094 -1.11749 12
    endloop
  endfacet
  facet normal 0.368126 -0.929776 0
    outer loop
      vertex 0.50029 -1.06317 12
      vertex 0.363094 -1.11749 10
      vertex 0.50029 -1.06317 10
    endloop
  endfacet
  facet normal 0.368126 0.929776 -0
    outer loop
      vertex 0.50029 1.06317 10
      vertex 0.363094 1.11749 12
      vertex 0.50029 1.06317 12
    endloop
  endfacet
  facet normal 0.368126 0.929776 0
    outer loop
      vertex 0.363094 1.11749 12
      vertex 0.50029 1.06317 10
      vertex 0.363094 1.11749 10
    endloop
  endfacet
  facet normal -0.904819 -0.425796 0
    outer loop
      vertex -1.02966 -0.56606 10
      vertex -1.09249 -0.432546 12
      vertex -1.09249 -0.432546 10
    endloop
  endfacet
  facet normal -0.904819 -0.425796 0
    outer loop
      vertex -1.09249 -0.432546 12
      vertex -1.02966 -0.56606 10
      vertex -1.02966 -0.56606 12
    endloop
  endfacet
  facet normal -0.904819 0.425796 0
    outer loop
      vertex -1.09249 0.432546 10
      vertex -1.02966 0.56606 12
      vertex -1.02966 0.56606 10
    endloop
  endfacet
  facet normal -0.904819 0.425796 0
    outer loop
      vertex -1.02966 0.56606 12
      vertex -1.09249 0.432546 10
      vertex -1.09249 0.432546 12
    endloop
  endfacet
  facet normal -0.125307 -0.992118 0
    outer loop
      vertex -0.220173 -1.15419 10
      vertex -0.0737782 -1.17268 12
      vertex -0.220173 -1.15419 12
    endloop
  endfacet
  facet normal -0.125307 -0.992118 -0
    outer loop
      vertex -0.0737782 -1.17268 12
      vertex -0.220173 -1.15419 10
      vertex -0.0737782 -1.17268 10
    endloop
  endfacet
  facet normal 0.904819 0.425796 0
    outer loop
      vertex 1.09249 0.432546 12
      vertex 1.02966 0.56606 10
      vertex 1.02966 0.56606 12
    endloop
  endfacet
  facet normal 0.904819 0.425796 0
    outer loop
      vertex 1.02966 0.56606 10
      vertex 1.09249 0.432546 12
      vertex 1.09249 0.432546 10
    endloop
  endfacet
  facet normal -0.125307 0.992118 0
    outer loop
      vertex -0.0737782 1.17268 10
      vertex -0.220173 1.15419 12
      vertex -0.0737782 1.17268 12
    endloop
  endfacet
  facet normal -0.125307 0.992118 0
    outer loop
      vertex -0.220173 1.15419 12
      vertex -0.0737782 1.17268 10
      vertex -0.220173 1.15419 10
    endloop
  endfacet
  facet normal -0.844329 -0.535825 0
    outer loop
      vertex -0.950595 -0.690647 10
      vertex -1.02966 -0.56606 12
      vertex -1.02966 -0.56606 10
    endloop
  endfacet
  facet normal -0.844329 -0.535825 0
    outer loop
      vertex -1.02966 -0.56606 12
      vertex -0.950595 -0.690647 10
      vertex -0.950595 -0.690647 12
    endloop
  endfacet
  facet normal 0.951072 -0.30897 0
    outer loop
      vertex 1.09249 -0.432546 12
      vertex 1.13808 -0.292211 10
      vertex 1.13808 -0.292211 12
    endloop
  endfacet
  facet normal 0.951072 -0.30897 0
    outer loop
      vertex 1.13808 -0.292211 10
      vertex 1.09249 -0.432546 12
      vertex 1.09249 -0.432546 10
    endloop
  endfacet
  facet normal -0.770512 -0.637425 0
    outer loop
      vertex -0.856538 -0.804342 10
      vertex -0.950595 -0.690647 12
      vertex -0.950595 -0.690647 10
    endloop
  endfacet
  facet normal -0.770512 -0.637425 0
    outer loop
      vertex -0.950595 -0.690647 12
      vertex -0.856538 -0.804342 10
      vertex -0.856538 -0.804342 12
    endloop
  endfacet
  facet normal -0.68455 0.728966 0
    outer loop
      vertex -0.748973 0.905353 10
      vertex -0.856538 0.804342 12
      vertex -0.748973 0.905353 12
    endloop
  endfacet
  facet normal -0.68455 0.728966 0
    outer loop
      vertex -0.856538 0.804342 12
      vertex -0.748973 0.905353 10
      vertex -0.856538 0.804342 10
    endloop
  endfacet
  facet normal 0.904819 -0.425796 0
    outer loop
      vertex 1.02966 -0.56606 12
      vertex 1.09249 -0.432546 10
      vertex 1.09249 -0.432546 12
    endloop
  endfacet
  facet normal 0.904819 -0.425796 0
    outer loop
      vertex 1.09249 -0.432546 10
      vertex 1.02966 -0.56606 12
      vertex 1.02966 -0.56606 10
    endloop
  endfacet
  facet normal -0.368126 -0.929776 0
    outer loop
      vertex -0.50029 -1.06317 10
      vertex -0.363094 -1.11749 12
      vertex -0.50029 -1.06317 12
    endloop
  endfacet
  facet normal -0.368126 -0.929776 -0
    outer loop
      vertex -0.363094 -1.11749 12
      vertex -0.50029 -1.06317 10
      vertex -0.363094 -1.11749 10
    endloop
  endfacet
  facet normal 0.68455 -0.728966 0
    outer loop
      vertex 0.748973 -0.905353 10
      vertex 0.856538 -0.804342 12
      vertex 0.748973 -0.905353 12
    endloop
  endfacet
  facet normal 0.68455 -0.728966 0
    outer loop
      vertex 0.856538 -0.804342 12
      vertex 0.748973 -0.905353 10
      vertex 0.856538 -0.804342 10
    endloop
  endfacet
  facet normal -0.248716 -0.968576 0
    outer loop
      vertex -0.363094 -1.11749 10
      vertex -0.220173 -1.15419 12
      vertex -0.363094 -1.11749 12
    endloop
  endfacet
  facet normal -0.248716 -0.968576 -0
    outer loop
      vertex -0.220173 -1.15419 12
      vertex -0.363094 -1.11749 10
      vertex -0.220173 -1.15419 10
    endloop
  endfacet
  facet normal -0.248716 0.968576 0
    outer loop
      vertex -0.220173 1.15419 10
      vertex -0.363094 1.11749 12
      vertex -0.220173 1.15419 12
    endloop
  endfacet
  facet normal -0.248716 0.968576 0
    outer loop
      vertex -0.363094 1.11749 12
      vertex -0.220173 1.15419 10
      vertex -0.363094 1.11749 10
    endloop
  endfacet
  facet normal 0.982287 -0.187383 0
    outer loop
      vertex 1.13808 -0.292211 12
      vertex 1.16573 -0.147266 10
      vertex 1.16573 -0.147266 12
    endloop
  endfacet
  facet normal 0.982287 -0.187383 0
    outer loop
      vertex 1.16573 -0.147266 10
      vertex 1.13808 -0.292211 12
      vertex 1.13808 -0.292211 10
    endloop
  endfacet
  facet normal -0.998025 -0.062823 0
    outer loop
      vertex -1.16573 -0.147266 10
      vertex -1.175 0 12
      vertex -1.175 0 10
    endloop
  endfacet
  facet normal -0.998025 -0.062823 0
    outer loop
      vertex -1.175 0 12
      vertex -1.16573 -0.147266 10
      vertex -1.16573 -0.147266 12
    endloop
  endfacet
  facet normal 0.125307 -0.992118 0
    outer loop
      vertex 0.0737782 -1.17268 10
      vertex 0.220173 -1.15419 12
      vertex 0.0737782 -1.17268 12
    endloop
  endfacet
  facet normal 0.125307 -0.992118 0
    outer loop
      vertex 0.220173 -1.15419 12
      vertex 0.0737782 -1.17268 10
      vertex 0.220173 -1.15419 10
    endloop
  endfacet
  facet normal -0.68455 -0.728966 0
    outer loop
      vertex -0.856538 -0.804342 10
      vertex -0.748973 -0.905353 12
      vertex -0.856538 -0.804342 12
    endloop
  endfacet
  facet normal -0.68455 -0.728966 -0
    outer loop
      vertex -0.748973 -0.905353 12
      vertex -0.856538 -0.804342 10
      vertex -0.748973 -0.905353 10
    endloop
  endfacet
  facet normal 0.844329 -0.535825 0
    outer loop
      vertex 0.950595 -0.690647 12
      vertex 1.02966 -0.56606 10
      vertex 1.02966 -0.56606 12
    endloop
  endfacet
  facet normal 0.844329 -0.535825 0
    outer loop
      vertex 1.02966 -0.56606 10
      vertex 0.950595 -0.690647 12
      vertex 0.950595 -0.690647 10
    endloop
  endfacet
  facet normal 0.248716 -0.968576 0
    outer loop
      vertex 0.220173 -1.15419 10
      vertex 0.363094 -1.11749 12
      vertex 0.220173 -1.15419 12
    endloop
  endfacet
  facet normal 0.248716 -0.968576 0
    outer loop
      vertex 0.363094 -1.11749 12
      vertex 0.220173 -1.15419 10
      vertex 0.363094 -1.11749 10
    endloop
  endfacet
  facet normal 0.998025 -0.062823 0
    outer loop
      vertex 1.16573 -0.147266 12
      vertex 1.175 0 10
      vertex 1.175 0 12
    endloop
  endfacet
  facet normal 0.998025 -0.062823 0
    outer loop
      vertex 1.175 0 10
      vertex 1.16573 -0.147266 12
      vertex 1.16573 -0.147266 10
    endloop
  endfacet
  facet normal -0.982287 0.187383 0
    outer loop
      vertex -1.16573 0.147266 10
      vertex -1.13808 0.292211 12
      vertex -1.13808 0.292211 10
    endloop
  endfacet
  facet normal -0.982287 0.187383 0
    outer loop
      vertex -1.13808 0.292211 12
      vertex -1.16573 0.147266 10
      vertex -1.16573 0.147266 12
    endloop
  endfacet
  facet normal -0.998025 0.062823 0
    outer loop
      vertex -1.175 0 10
      vertex -1.16573 0.147266 12
      vertex -1.16573 0.147266 10
    endloop
  endfacet
  facet normal -0.998025 0.062823 0
    outer loop
      vertex -1.16573 0.147266 12
      vertex -1.175 0 10
      vertex -1.175 0 12
    endloop
  endfacet
  facet normal -0.368126 0.929776 0
    outer loop
      vertex -0.363094 1.11749 10
      vertex -0.50029 1.06317 12
      vertex -0.363094 1.11749 12
    endloop
  endfacet
  facet normal -0.368126 0.929776 0
    outer loop
      vertex -0.50029 1.06317 12
      vertex -0.363094 1.11749 10
      vertex -0.50029 1.06317 10
    endloop
  endfacet
  facet normal 0.481745 0.876311 -0
    outer loop
      vertex 0.629596 0.992085 10
      vertex 0.50029 1.06317 12
      vertex 0.629596 0.992085 12
    endloop
  endfacet
  facet normal 0.481745 0.876311 0
    outer loop
      vertex 0.50029 1.06317 12
      vertex 0.629596 0.992085 10
      vertex 0.50029 1.06317 10
    endloop
  endfacet
  facet normal -0.770512 0.637425 0
    outer loop
      vertex -0.950595 0.690647 10
      vertex -0.856538 0.804342 12
      vertex -0.856538 0.804342 10
    endloop
  endfacet
  facet normal -0.770512 0.637425 0
    outer loop
      vertex -0.856538 0.804342 12
      vertex -0.950595 0.690647 10
      vertex -0.950595 0.690647 12
    endloop
  endfacet
  facet normal 0.587783 0.809019 -0
    outer loop
      vertex 0.748973 0.905353 10
      vertex 0.629596 0.992085 12
      vertex 0.748973 0.905353 12
    endloop
  endfacet
  facet normal 0.587783 0.809019 0
    outer loop
      vertex 0.629596 0.992085 12
      vertex 0.748973 0.905353 10
      vertex 0.629596 0.992085 10
    endloop
  endfacet
  facet normal 0.587783 -0.809019 0
    outer loop
      vertex 0.629596 -0.992085 10
      vertex 0.748973 -0.905353 12
      vertex 0.629596 -0.992085 12
    endloop
  endfacet
  facet normal 0.587783 -0.809019 0
    outer loop
      vertex 0.748973 -0.905353 12
      vertex 0.629596 -0.992085 10
      vertex 0.748973 -0.905353 10
    endloop
  endfacet
  facet normal 0 -1 0
    outer loop
      vertex -0.0737782 -1.17268 10
      vertex 0.0737782 -1.17268 12
      vertex -0.0737782 -1.17268 12
    endloop
  endfacet
  facet normal 0 -1 -0
    outer loop
      vertex 0.0737782 -1.17268 12
      vertex -0.0737782 -1.17268 10
      vertex 0.0737782 -1.17268 10
    endloop
  endfacet
  facet normal -0.951072 -0.30897 0
    outer loop
      vertex -1.09249 -0.432546 10
      vertex -1.13808 -0.292211 12
      vertex -1.13808 -0.292211 10
    endloop
  endfacet
  facet normal -0.951072 -0.30897 0
    outer loop
      vertex -1.13808 -0.292211 12
      vertex -1.09249 -0.432546 10
      vertex -1.09249 -0.432546 12
    endloop
  endfacet
  facet normal 0 1 -0
    outer loop
      vertex 0.0737782 1.17268 10
      vertex -0.0737782 1.17268 12
      vertex 0.0737782 1.17268 12
    endloop
  endfacet
  facet normal 0 1 0
    outer loop
      vertex -0.0737782 1.17268 12
      vertex 0.0737782 1.17268 10
      vertex -0.0737782 1.17268 10
    endloop
  endfacet
  facet normal 0.770512 0.637425 0
    outer loop
      vertex 0.950595 0.690647 12
      vertex 0.856538 0.804342 10
      vertex 0.856538 0.804342 12
    endloop
  endfacet
  facet normal 0.770512 0.637425 0
    outer loop
      vertex 0.856538 0.804342 10
      vertex 0.950595 0.690647 12
      vertex 0.950595 0.690647 10
    endloop
  endfacet
  facet normal 0.68455 0.728966 -0
    outer loop
      vertex 0.856538 0.804342 10
      vertex 0.748973 0.905353 12
      vertex 0.856538 0.804342 12
    endloop
  endfacet
  facet normal 0.68455 0.728966 0
    outer loop
      vertex 0.748973 0.905353 12
      vertex 0.856538 0.804342 10
      vertex 0.748973 0.905353 10
    endloop
  endfacet
  facet normal 0.770512 -0.637425 0
    outer loop
      vertex 0.856538 -0.804342 12
      vertex 0.950595 -0.690647 10
      vertex 0.950595 -0.690647 12
    endloop
  endfacet
  facet normal 0.770512 -0.637425 0
    outer loop
      vertex 0.950595 -0.690647 10
      vertex 0.856538 -0.804342 12
      vertex 0.856538 -0.804342 10
    endloop
  endfacet
  facet normal -0.587783 -0.809019 0
    outer loop
      vertex -0.748973 -0.905353 10
      vertex -0.629596 -0.992085 12
      vertex -0.748973 -0.905353 12
    endloop
  endfacet
  facet normal -0.587783 -0.809019 -0
    outer loop
      vertex -0.629596 -0.992085 12
      vertex -0.748973 -0.905353 10
      vertex -0.629596 -0.992085 10
    endloop
  endfacet
  facet normal -0.951072 0.30897 0
    outer loop
      vertex -1.13808 0.292211 10
      vertex -1.09249 0.432546 12
      vertex -1.09249 0.432546 10
    endloop
  endfacet
  facet normal -0.951072 0.30897 0
    outer loop
      vertex -1.09249 0.432546 12
      vertex -1.13808 0.292211 10
      vertex -1.13808 0.292211 12
    endloop
  endfacet
  facet normal -0.982287 -0.187383 0
    outer loop
      vertex -1.13808 -0.292211 10
      vertex -1.16573 -0.147266 12
      vertex -1.16573 -0.147266 10
    endloop
  endfacet
  facet normal -0.982287 -0.187383 0
    outer loop
      vertex -1.16573 -0.147266 12
      vertex -1.13808 -0.292211 10
      vertex -1.13808 -0.292211 12
    endloop
  endfacet
  facet normal -0.587783 0.809019 0
    outer loop
      vertex -0.629596 0.992085 10
      vertex -0.748973 0.905353 12
      vertex -0.629596 0.992085 12
    endloop
  endfacet
  facet normal -0.587783 0.809019 0
    outer loop
      vertex -0.748973 0.905353 12
      vertex -0.629596 0.992085 10
      vertex -0.748973 0.905353 10
    endloop
  endfacet
  facet normal -0.481745 0.876311 0
    outer loop
      vertex -0.50029 1.06317 10
      vertex -0.629596 0.992085 12
      vertex -0.50029 1.06317 12
    endloop
  endfacet
  facet normal -0.481745 0.876311 0
    outer loop
      vertex -0.629596 0.992085 12
      vertex -0.50029 1.06317 10
      vertex -0.629596 0.992085 10
    endloop
  endfacet
  facet normal 0.481745 -0.876311 0
    outer loop
      vertex 0.50029 -1.06317 10
      vertex 0.629596 -0.992085 12
      vertex 0.50029 -1.06317 12
    endloop
  endfacet
  facet normal 0.481745 -0.876311 0
    outer loop
      vertex 0.629596 -0.992085 12
      vertex 0.50029 -1.06317 10
      vertex 0.629596 -0.992085 10
    endloop
  endfacet
  facet normal -0.481745 -0.876311 0
    outer loop
      vertex -0.629596 -0.992085 10
      vertex -0.50029 -1.06317 12
      vertex -0.629596 -0.992085 12
    endloop
  endfacet
  facet normal -0.481745 -0.876311 -0
    outer loop
      vertex -0.50029 -1.06317 12
      vertex -0.629596 -0.992085 10
      vertex -0.50029 -1.06317 10
    endloop
  endfacet
  facet normal -0.844329 0.535825 0
    outer loop
      vertex -1.02966 0.56606 10
      vertex -0.950595 0.690647 12
      vertex -0.950595 0.690647 10
    endloop
  endfacet
  facet normal -0.844329 0.535825 0
    outer loop
      vertex -0.950595 0.690647 12
      vertex -1.02966 0.56606 10
      vertex -1.02966 0.56606 12
    endloop
  endfacet
  facet normal 0 0 1
    outer loop
      vertex 1.16573 0.147266 12
      vertex 1.16573 -0.147266 12
      vertex 1.175 0 12
    endloop
  endfacet
  facet normal 0 0 1
    outer loop
      vertex 1.13808 0.292211 12
      vertex 1.16573 -0.147266 12
      vertex 1.16573 0.147266 12
    endloop
  endfacet
  facet normal 0 0 1
    outer loop
      vertex 1.13808 0.292211 12
      vertex 1.13808 -0.292211 12
      vertex 1.16573 -0.147266 12
    endloop
  endfacet
  facet normal 0 0 1
    outer loop
      vertex 1.09249 0.432546 12
      vertex 1.13808 -0.292211 12
      vertex 1.13808 0.292211 12
    endloop
  endfacet
  facet normal 0 0 1
    outer loop
      vertex 1.09249 0.432546 12
      vertex 1.09249 -0.432546 12
      vertex 1.13808 -0.292211 12
    endloop
  endfacet
  facet normal 0 0 1
    outer loop
      vertex 1.02966 0.56606 12
      vertex 1.09249 -0.432546 12
      vertex 1.09249 0.432546 12
    endloop
  endfacet
  facet normal 0 0 1
    outer loop
      vertex 1.02966 0.56606 12
      vertex 1.02966 -0.56606 12
      vertex 1.09249 -0.432546 12
    endloop
  endfacet
  facet normal 0 0 1
    outer loop
      vertex 0.950595 0.690647 12
      vertex 1.02966 -0.56606 12
      vertex 1.02966 0.56606 12
    endloop
  endfacet
  facet normal 0 0 1
    outer loop
      vertex 0.950595 0.690647 12
      vertex 0.950595 -0.690647 12
      vertex 1.02966 -0.56606 12
    endloop
  endfacet
  facet normal 0 0 1
    outer loop
      vertex 0.856538 0.804342 12
      vertex 0.950595 -0.690647 12
      vertex 0.950595 0.690647 12
    endloop
  endfacet
  facet normal 0 0 1
    outer loop
      vertex 0.856538 0.804342 12
      vertex 0.856538 -0.804342 12
      vertex 0.950595 -0.690647 12
    endloop
  endfacet
  facet normal 0 0 1
    outer loop
      vertex 0.748973 0.905353 12
      vertex 0.856538 -0.804342 12
      vertex 0.856538 0.804342 12
    endloop
  endfacet
  facet normal 0 0 1
    outer loop
      vertex 0.748973 0.905353 12
      vertex 0.748973 -0.905353 12
      vertex 0.856538 -0.804342 12
    endloop
  endfacet
  facet normal 0 0 1
    outer loop
      vertex 0.629596 0.992085 12
      vertex 0.748973 -0.905353 12
      vertex 0.748973 0.905353 12
    endloop
  endfacet
  facet normal 0 0 1
    outer loop
      vertex 0.629596 0.992085 12
      vertex 0.629596 -0.992085 12
      vertex 0.748973 -0.905353 12
    endloop
  endfacet
  facet normal 0 0 1
    outer loop
      vertex 0.50029 1.06317 12
      vertex 0.629596 -0.992085 12
      vertex 0.629596 0.992085 12
    endloop
  endfacet
  facet normal 0 0 1
    outer loop
      vertex 0.50029 1.06317 12
      vertex 0.50029 -1.06317 12
      vertex 0.629596 -0.992085 12
    endloop
  endfacet
  facet normal 0 0 1
    outer loop
      vertex 0.363094 1.11749 12
      vertex 0.50029 -1.06317 12
      vertex 0.50029 1.06317 12
    endloop
  endfacet
  facet normal 0 0 1
    outer loop
      vertex 0.363094 1.11749 12
      vertex 0.363094 -1.11749 12
      vertex 0.50029 -1.06317 12
    endloop
  endfacet
  facet normal 0 0 1
    outer loop
      vertex 0.220173 1.15419 12
      vertex 0.363094 -1.11749 12
      vertex 0.363094 1.11749 12
    endloop
  endfacet
  facet normal 0 0 1
    outer loop
      vertex 0.220173 1.15419 12
      vertex 0.220173 -1.15419 12
      vertex 0.363094 -1.11749 12
    endloop
  endfacet
  facet normal 0 0 1
    outer loop
      vertex 0.0737782 1.17268 12
      vertex 0.220173 -1.15419 12
      vertex 0.220173 1.15419 12
    endloop
  endfacet
  facet normal 0 0 1
    outer loop
      vertex 0.0737782 1.17268 12
      vertex 0.0737782 -1.17268 12
      vertex 0.220173 -1.15419 12
    endloop
  endfacet
  facet normal -0 0 1
    outer loop
      vertex -0.0737782 1.17268 12
      vertex 0.0737782 -1.17268 12
      vertex 0.0737782 1.17268 12
    endloop
  endfacet
  facet normal 0 0 1
    outer loop
      vertex -0.0737782 1.17268 12
      vertex -0.0737782 -1.17268 12
      vertex 0.0737782 -1.17268 12
    endloop
  endfacet
  facet normal -0 0 1
    outer loop
      vertex -0.220173 1.15419 12
      vertex -0.0737782 -1.17268 12
      vertex -0.0737782 1.17268 12
    endloop
  endfacet
  facet normal 0 0 1
    outer loop
      vertex -0.220173 1.15419 12
      vertex -0.220173 -1.15419 12
      vertex -0.0737782 -1.17268 12
    endloop
  endfacet
  facet normal -0 0 1
    outer loop
      vertex -0.363094 1.11749 12
      vertex -0.220173 -1.15419 12
      vertex -0.220173 1.15419 12
    endloop
  endfacet
  facet normal 0 0 1
    outer loop
      vertex -0.363094 1.11749 12
      vertex -0.363094 -1.11749 12
      vertex -0.220173 -1.15419 12
    endloop
  endfacet
  facet normal -0 0 1
    outer loop
      vertex -0.50029 1.06317 12
      vertex -0.363094 -1.11749 12
      vertex -0.363094 1.11749 12
    endloop
  endfacet
  facet normal 0 0 1
    outer loop
      vertex -0.50029 1.06317 12
      vertex -0.50029 -1.06317 12
      vertex -0.363094 -1.11749 12
    endloop
  endfacet
  facet normal -0 0 1
    outer loop
      vertex -0.629596 0.992085 12
      vertex -0.50029 -1.06317 12
      vertex -0.50029 1.06317 12
    endloop
  endfacet
  facet normal 0 0 1
    outer loop
      vertex -0.629596 0.992085 12
      vertex -0.629596 -0.992085 12
      vertex -0.50029 -1.06317 12
    endloop
  endfacet
  facet normal -0 0 1
    outer loop
      vertex -0.748973 0.905353 12
      vertex -0.629596 -0.992085 12
      vertex -0.629596 0.992085 12
    endloop
  endfacet
  facet normal 0 0 1
    outer loop
      vertex -0.748973 0.905353 12
      vertex -0.748973 -0.905353 12
      vertex -0.629596 -0.992085 12
    endloop
  endfacet
  facet normal -0 0 1
    outer loop
      vertex -0.856538 0.804342 12
      vertex -0.748973 -0.905353 12
      vertex -0.748973 0.905353 12
    endloop
  endfacet
  facet normal 0 0 1
    outer loop
      vertex -0.856538 0.804342 12
      vertex -0.856538 -0.804342 12
      vertex -0.748973 -0.905353 12
    endloop
  endfacet
  facet normal -0 0 1
    outer loop
      vertex -0.950595 0.690647 12
      vertex -0.856538 -0.804342 12
      vertex -0.856538 0.804342 12
    endloop
  endfacet
  facet normal 0 0 1
    outer loop
      vertex -0.950595 0.690647 12
      vertex -0.950595 -0.690647 12
      vertex -0.856538 -0.804342 12
    endloop
  endfacet
  facet normal -0 0 1
    outer loop
      vertex -1.02966 0.56606 12
      vertex -0.950595 -0.690647 12
      vertex -0.950595 0.690647 12
    endloop
  endfacet
  facet normal 0 0 1
    outer loop
      vertex -1.02966 0.56606 12
      vertex -1.02966 -0.56606 12
      vertex -0.950595 -0.690647 12
    endloop
  endfacet
  facet normal -0 0 1
    outer loop
      vertex -1.09249 0.432546 12
      vertex -1.02966 -0.56606 12
      vertex -1.02966 0.56606 12
    endloop
  endfacet
  facet normal 0 0 1
    outer loop
      vertex -1.09249 0.432546 12
      vertex -1.09249 -0.432546 12
      vertex -1.02966 -0.56606 12
    endloop
  endfacet
  facet normal -0 0 1
    outer loop
      vertex -1.13808 0.292211 12
      vertex -1.09249 -0.432546 12
      vertex -1.09249 0.432546 12
    endloop
  endfacet
  facet normal 0 0 1
    outer loop
      vertex -1.13808 0.292211 12
      vertex -1.13808 -0.292211 12
      vertex -1.09249 -0.432546 12
    endloop
  endfacet
  facet normal -0 0 1
    outer loop
      vertex -1.16573 0.147266 12
      vertex -1.13808 -0.292211 12
      vertex -1.13808 0.292211 12
    endloop
  endfacet
  facet normal 0 0 1
    outer loop
      vertex -1.16573 0.147266 12
      vertex -1.16573 -0.147266 12
      vertex -1.13808 -0.292211 12
    endloop
  endfacet
  facet normal 0 -0 1
    outer loop
      vertex -1.16573 -0.147266 12
      vertex -1.16573 0.147266 12
      vertex -1.175 0 12
    endloop
  endfacet
endsolid OpenSCAD_Model
